# xmcd CD database file
#
# Track frame offsets:
#	150
#	33688
#	53413
#	79487
#	94805
#	113924
#	133295
#	153761
#	173340
#	191748
#	215308
#	232922
#
# Disc length: 3515 seconds
#
# Revision: 0
# Processed by: cddbd v1.5.2PL0 Copyright (c) Steve Scherf et al.
# Submitted via: CDex 1.51
#
DISCID=980db90c
DTITLE=Hand-André Stamm - Celestial Gardens
DYEAR=2001
DGENRE=New Age
TTITLE0=Crystal Garden
TTITLE1=The Vale of Bliss
TTITLE2=Alhambra Gardens
TTITLE3=Esclarmonde's Garden
TTITLE4=The Zen Stone Garden
TTITLE5=The Garden of the Apsaras
TTITLE6=The Fairy Wood
TTITLE7=Lakshmi's Garden
TTITLE8=The Still Pond
TTITLE9=The Peacock's Grove
TTITLE10=Cherry Blossoms
TTITLE11=Semirami's Garden
EXTD=YEAR: 2001
EXTT0=
EXTT1=
EXTT2=
EXTT3=
EXTT4=
EXTT5=
EXTT6=
EXTT7=
EXTT8=
EXTT9=
EXTT10=
EXTT11=
PLAYORDER=
